<svg width="24" height="19" viewBox="0 0 24 19" fill="none" xmlns="http://www.w3.org/2000/svg">
<g clip-path="url(#clip0_7108_6560)">
<path d="M20.3303 1.52312C18.7535 0.801205 17.0889 0.289058 15.3789 -0.000244141C15.1449 0.418044 14.9332 0.848407 14.7447 1.28904C12.9233 1.01458 11.071 1.01458 9.24963 1.28904C9.06097 0.848452 8.84926 0.418095 8.61537 -0.000244141C6.90435 0.291501 5.23861 0.804864 3.6602 1.52689C0.526645 6.16304 -0.322812 10.684 0.101917 15.1409C1.937 16.4967 3.99099 17.5278 6.17459 18.1895C6.66628 17.5282 7.10135 16.8266 7.47521 16.0923C6.76512 15.827 6.07977 15.4998 5.42707 15.1144C5.59885 14.9898 5.76685 14.8615 5.92919 14.7369C7.82839 15.63 9.90126 16.0931 12 16.0931C14.0987 16.0931 16.1716 15.63 18.0708 14.7369C18.235 14.8709 18.403 14.9993 18.5729 15.1144C17.9189 15.5005 17.2323 15.8283 16.521 16.0941C16.8944 16.8282 17.3295 17.5291 17.8216 18.1895C20.0071 17.5305 22.0626 16.4998 23.898 15.1427C24.3964 9.97427 23.0467 5.4948 20.3303 1.52312ZM8.0132 12.3999C6.82962 12.3999 5.8518 11.3259 5.8518 10.0045C5.8518 8.6831 6.79564 7.59957 8.00942 7.59957C9.2232 7.59957 10.1935 8.6831 10.1727 10.0045C10.1519 11.3259 9.21943 12.3999 8.0132 12.3999ZM15.9868 12.3999C14.8013 12.3999 13.8273 11.3259 13.8273 10.0045C13.8273 8.6831 14.7711 7.59957 15.9868 7.59957C17.2024 7.59957 18.1652 8.6831 18.1444 10.0045C18.1236 11.3259 17.193 12.3999 15.9868 12.3999Z" fill="black"/>
</g>
<defs>
<clipPath id="clip0_7108_6560">
<rect width="24" height="18.1897" fill="white"/>
</clipPath>
</defs>
</svg>
