<svg width="298" height="147" viewBox="0 0 298 147" fill="none" xmlns="http://www.w3.org/2000/svg">
<rect width="298" height="147" rx="6" fill="#F54D18"/>
<path fill-rule="evenodd" clip-rule="evenodd" d="M158.968 56.5325C179.798 32.2959 200.125 68.1461 169.007 73.9527C200.125 80.0119 179.547 115.61 158.968 91.3726C169.508 121.668 128.602 121.416 139.142 91.3726C118.313 115.61 97.985 80.0119 129.104 73.9527C97.734 68.1461 118.313 32.5483 139.142 56.5325C128.351 26.4892 169.508 26.4892 158.968 56.5325ZM148.93 69.4083C151.44 69.4083 153.698 71.4281 153.698 73.9527C153.698 76.4773 151.44 78.7496 148.93 78.7496C146.42 78.7496 144.412 76.4773 144.412 73.9527C144.412 71.4281 146.42 69.4083 148.93 69.4083Z" fill="#FDA4FF"/>
</svg>
