<svg width="64" height="64" viewBox="0 0 64 64" fill="none" xmlns="http://www.w3.org/2000/svg">
<path d="M0 6C0 2.68629 2.68629 0 6 0H58C61.3137 0 64 2.68629 64 6V58C64 61.3137 61.3137 64 58 64H6C2.68629 64 0 61.3137 0 58V6Z" fill="#F54D18"/>
<path fill-rule="evenodd" clip-rule="evenodd" d="M36.9841 23.2663C47.399 11.1479 57.5627 29.073 42.0033 31.9763C57.5627 35.006 47.2735 52.8048 36.9841 40.6863C42.2542 55.8342 21.801 55.7081 27.0712 40.6863C16.6564 52.8048 6.49249 35.006 22.052 31.9763C6.36701 29.073 16.6564 11.2742 27.0712 23.2663C21.6756 8.24458 42.2542 8.24458 36.9841 23.2663ZM31.9649 29.7042C33.2198 29.7042 34.349 30.714 34.349 31.9763C34.349 33.2386 33.2198 34.3748 31.9649 34.3748C30.7101 34.3748 29.7062 33.2386 29.7062 31.9763C29.7062 30.714 30.7101 29.7042 31.9649 29.7042Z" fill="#FDA4FF"/>
</svg>
