<svg width="64" height="64" viewBox="0 0 64 64" fill="none" xmlns="http://www.w3.org/2000/svg">
<rect width="64" height="64" rx="6" fill="#FDA4FF"/>
<path d="M31.4663 12.4741C31.5413 11.842 32.4587 11.842 32.5337 12.4741L33.163 17.7774C33.9755 24.6254 39.3746 30.0245 46.2225 30.837L51.5258 31.4663C52.1581 31.5413 52.1581 32.4587 51.5258 32.5337L46.2225 33.163C39.3746 33.9755 33.9755 39.3746 33.163 46.2225L32.5337 51.5258C32.4587 52.1581 31.5413 52.1581 31.4663 51.5258L30.837 46.2225C30.0245 39.3746 24.6254 33.9755 17.7774 33.163L12.4741 32.5337C11.842 32.4587 11.842 31.5413 12.4741 31.4663L17.7774 30.837C24.6254 30.0245 30.0245 24.6254 30.837 17.7774L31.4663 12.4741Z" fill="#8146FF"/>
</svg>
