<svg width="298" height="147" viewBox="0 0 298 147" fill="none" xmlns="http://www.w3.org/2000/svg">
<rect width="298" height="147" rx="6" fill="#FDA4FF"/>
<path d="M144.933 33.9482C145.083 32.6839 146.917 32.6839 147.067 33.9482L148.326 44.5548C149.951 58.2508 160.749 69.049 174.445 70.674L185.052 71.9325C186.316 72.0827 186.316 73.9173 185.052 74.0675L174.445 75.326C160.749 76.951 149.951 87.7493 148.326 101.445L147.067 112.052C146.917 113.316 145.083 113.316 144.933 112.052L143.674 101.445C142.049 87.7493 131.251 76.951 117.555 75.326L106.948 74.0675C105.684 73.9173 105.684 72.0827 106.948 71.9325L117.555 70.674C131.251 69.049 142.049 58.2508 143.674 44.5548L144.933 33.9482Z" fill="#8146FF"/>
</svg>
